<svg height="2238" width="720" xmlns="http://www.w3.org/2000/svg">
<rect height="2238" fill="#555" width="720"></rect>
<text fill="#7f7" font-family="Courier New" font-size="12" xml:space="preserve">
<tspan x="10" y="26">9 megabytes installed</tspan>
<tspan x="10" y="42"></tspan>
<tspan x="10" y="58">node_modules</tspan>
<tspan x="10" y="74">└─┬ hubot@2.19.0 </tspan>
<tspan x="10" y="90">  ├── async@0.9.2 </tspan>
<tspan x="10" y="106">  ├─┬ chalk@1.1.3 </tspan>
<tspan x="10" y="122">  │ ├── ansi-styles@2.2.1 </tspan>
<tspan x="10" y="138">  │ ├── escape-string-regexp@1.0.5 </tspan>
<tspan x="10" y="154">  │ ├─┬ has-ansi@2.0.0 </tspan>
<tspan x="10" y="170">  │ │ └── ansi-regex@2.1.1 </tspan>
<tspan x="10" y="186">  │ ├── strip-ansi@3.0.1 </tspan>
<tspan x="10" y="202">  │ └── supports-color@2.0.0 </tspan>
<tspan x="10" y="218">  ├── cline@0.8.2 </tspan>
<tspan x="10" y="234">  ├── coffee-script@1.6.3 </tspan>
<tspan x="10" y="250">  ├─┬ connect-multiparty@1.2.5 </tspan>
<tspan x="10" y="266">  │ ├─┬ multiparty@3.3.2 </tspan>
<tspan x="10" y="282">  │ │ ├─┬ readable-stream@1.1.14 </tspan>
<tspan x="10" y="298">  │ │ │ ├── core-util-is@1.0.2 </tspan>
<tspan x="10" y="314">  │ │ │ ├── inherits@2.0.3 </tspan>
<tspan x="10" y="330">  │ │ │ ├── isarray@0.0.1 </tspan>
<tspan x="10" y="346">  │ │ │ └── string_decoder@0.10.31 </tspan>
<tspan x="10" y="362">  │ │ └── stream-counter@0.2.0 </tspan>
<tspan x="10" y="378">  │ ├─┬ on-finished@2.1.1 </tspan>
<tspan x="10" y="394">  │ │ └── ee-first@1.1.0 </tspan>
<tspan x="10" y="410">  │ ├── qs@2.2.5 </tspan>
<tspan x="10" y="426">  │ └─┬ type-is@1.5.7 </tspan>
<tspan x="10" y="442">  │   ├── media-typer@0.3.0 </tspan>
<tspan x="10" y="458">  │   └─┬ mime-types@2.0.14 </tspan>
<tspan x="10" y="474">  │     └── mime-db@1.12.0 </tspan>
<tspan x="10" y="490">  ├─┬ express@3.21.2 </tspan>
<tspan x="10" y="506">  │ ├── basic-auth@1.0.4 </tspan>
<tspan x="10" y="522">  │ ├── commander@2.6.0 </tspan>
<tspan x="10" y="538">  │ ├─┬ connect@2.30.2 </tspan>
<tspan x="10" y="554">  │ │ ├── basic-auth-connect@1.0.0 </tspan>
<tspan x="10" y="570">  │ │ ├─┬ body-parser@1.13.3 </tspan>
<tspan x="10" y="586">  │ │ │ ├── iconv-lite@0.4.11 </tspan>
<tspan x="10" y="602">  │ │ │ ├─┬ on-finished@2.3.0 </tspan>
<tspan x="10" y="618">  │ │ │ │ └── ee-first@1.1.1 </tspan>
<tspan x="10" y="634">  │ │ │ ├── qs@4.0.0 </tspan>
<tspan x="10" y="650">  │ │ │ ├─┬ raw-body@2.1.7 </tspan>
<tspan x="10" y="666">  │ │ │ │ ├── bytes@2.4.0 </tspan>
<tspan x="10" y="682">  │ │ │ │ └── iconv-lite@0.4.13 </tspan>
<tspan x="10" y="698">  │ │ │ └─┬ type-is@1.6.15 </tspan>
<tspan x="10" y="714">  │ │ │   └─┬ mime-types@2.1.15 </tspan>
<tspan x="10" y="730">  │ │ │     └── mime-db@1.27.0 </tspan>
<tspan x="10" y="746">  │ │ ├── bytes@2.1.0 </tspan>
<tspan x="10" y="762">  │ │ ├─┬ compression@1.5.2 </tspan>
<tspan x="10" y="778">  │ │ │ ├─┬ accepts@1.2.13 </tspan>
<tspan x="10" y="794">  │ │ │ │ ├─┬ mime-types@2.1.15 </tspan>
<tspan x="10" y="810">  │ │ │ │ │ └── mime-db@1.27.0 </tspan>
<tspan x="10" y="826">  │ │ │ │ └── negotiator@0.5.3 </tspan>
<tspan x="10" y="842">  │ │ │ └─┬ compressible@2.0.10 </tspan>
<tspan x="10" y="858">  │ │ │   └── mime-db@1.27.0 </tspan>
<tspan x="10" y="874">  │ │ ├── connect-timeout@1.6.2 </tspan>
<tspan x="10" y="890">  │ │ ├── cookie-parser@1.3.5 </tspan>
<tspan x="10" y="906">  │ │ ├─┬ csurf@1.8.3 </tspan>
<tspan x="10" y="922">  │ │ │ └─┬ csrf@3.0.6 </tspan>
<tspan x="10" y="938">  │ │ │   ├── rndm@1.2.0 </tspan>
<tspan x="10" y="954">  │ │ │   ├── tsscmp@1.0.5 </tspan>
<tspan x="10" y="970">  │ │ │   └─┬ uid-safe@2.1.4 </tspan>
<tspan x="10" y="986">  │ │ │     └── random-bytes@1.0.0 </tspan>
<tspan x="10" y="1002">  │ │ ├─┬ errorhandler@1.4.3 </tspan>
<tspan x="10" y="1018">  │ │ │ ├─┬ accepts@1.3.3 </tspan>
<tspan x="10" y="1034">  │ │ │ │ ├─┬ mime-types@2.1.15 </tspan>
<tspan x="10" y="1050">  │ │ │ │ │ └── mime-db@1.27.0 </tspan>
<tspan x="10" y="1066">  │ │ │ │ └── negotiator@0.6.1 </tspan>
<tspan x="10" y="1082">  │ │ │ └── escape-html@1.0.3 </tspan>
<tspan x="10" y="1098">  │ │ ├─┬ express-session@1.11.3 </tspan>
<tspan x="10" y="1114">  │ │ │ ├── crc@3.3.0 </tspan>
<tspan x="10" y="1130">  │ │ │ └─┬ uid-safe@2.0.0 </tspan>
<tspan x="10" y="1146">  │ │ │   └── base64-url@1.2.1 </tspan>
<tspan x="10" y="1162">  │ │ ├─┬ finalhandler@0.4.0 </tspan>
<tspan x="10" y="1178">  │ │ │ ├─┬ on-finished@2.3.0 </tspan>
<tspan x="10" y="1194">  │ │ │ │ └── ee-first@1.1.1 </tspan>
<tspan x="10" y="1210">  │ │ │ └── unpipe@1.0.0 </tspan>
<tspan x="10" y="1226">  │ │ ├─┬ http-errors@1.3.1 </tspan>
<tspan x="10" y="1242">  │ │ │ └── statuses@1.3.1 </tspan>
<tspan x="10" y="1258">  │ │ ├─┬ method-override@2.3.8 </tspan>
<tspan x="10" y="1274">  │ │ │ ├─┬ debug@2.6.3 </tspan>
<tspan x="10" y="1290">  │ │ │ │ └── ms@0.7.2 </tspan>
<tspan x="10" y="1306">  │ │ │ └── vary@1.1.1 </tspan>
<tspan x="10" y="1322">  │ │ ├─┬ morgan@1.6.1 </tspan>
<tspan x="10" y="1338">  │ │ │ └─┬ on-finished@2.3.0 </tspan>
<tspan x="10" y="1354">  │ │ │   └── ee-first@1.1.1 </tspan>
<tspan x="10" y="1370">  │ │ ├── on-headers@1.0.1 </tspan>
<tspan x="10" y="1386">  │ │ ├── pause@0.1.0 </tspan>
<tspan x="10" y="1402">  │ │ ├── qs@4.0.0 </tspan>
<tspan x="10" y="1418">  │ │ ├─┬ response-time@2.3.2 </tspan>
<tspan x="10" y="1434">  │ │ │ └── depd@1.1.0 </tspan>
<tspan x="10" y="1450">  │ │ ├─┬ serve-favicon@2.3.2 </tspan>
<tspan x="10" y="1466">  │ │ │ └── ms@0.7.2 </tspan>
<tspan x="10" y="1482">  │ │ ├─┬ serve-index@1.7.3 </tspan>
<tspan x="10" y="1498">  │ │ │ ├── batch@0.5.3 </tspan>
<tspan x="10" y="1514">  │ │ │ ├── escape-html@1.0.3 </tspan>
<tspan x="10" y="1530">  │ │ │ └─┬ mime-types@2.1.15 </tspan>
<tspan x="10" y="1546">  │ │ │   └── mime-db@1.27.0 </tspan>
<tspan x="10" y="1562">  │ │ ├─┬ serve-static@1.10.3 </tspan>
<tspan x="10" y="1578">  │ │ │ ├── escape-html@1.0.3 </tspan>
<tspan x="10" y="1594">  │ │ │ └─┬ send@0.13.2 </tspan>
<tspan x="10" y="1610">  │ │ │   ├── depd@1.1.0 </tspan>
<tspan x="10" y="1626">  │ │ │   ├── destroy@1.0.4 </tspan>
<tspan x="10" y="1642">  │ │ │   ├─┬ on-finished@2.3.0 </tspan>
<tspan x="10" y="1658">  │ │ │   │ └── ee-first@1.1.1 </tspan>
<tspan x="10" y="1674">  │ │ │   └── statuses@1.2.1 </tspan>
<tspan x="10" y="1690">  │ │ ├─┬ type-is@1.6.15 </tspan>
<tspan x="10" y="1706">  │ │ │ └─┬ mime-types@2.1.15 </tspan>
<tspan x="10" y="1722">  │ │ │   └── mime-db@1.27.0 </tspan>
<tspan x="10" y="1738">  │ │ └── vhost@3.0.2 </tspan>
<tspan x="10" y="1754">  │ ├── content-disposition@0.5.0 </tspan>
<tspan x="10" y="1770">  │ ├── content-type@1.0.2 </tspan>
<tspan x="10" y="1786">  │ ├── cookie@0.1.3 </tspan>
<tspan x="10" y="1802">  │ ├── cookie-signature@1.0.6 </tspan>
<tspan x="10" y="1818">  │ ├─┬ debug@2.2.0 </tspan>
<tspan x="10" y="1834">  │ │ └── ms@0.7.1 </tspan>
<tspan x="10" y="1850">  │ ├── depd@1.0.1 </tspan>
<tspan x="10" y="1866">  │ ├── escape-html@1.0.2 </tspan>
<tspan x="10" y="1882">  │ ├── etag@1.7.0 </tspan>
<tspan x="10" y="1898">  │ ├── fresh@0.3.0 </tspan>
<tspan x="10" y="1914">  │ ├── merge-descriptors@1.0.0 </tspan>
<tspan x="10" y="1930">  │ ├── methods@1.1.2 </tspan>
<tspan x="10" y="1946">  │ ├─┬ mkdirp@0.5.1 </tspan>
<tspan x="10" y="1962">  │ │ └── minimist@0.0.8 </tspan>
<tspan x="10" y="1978">  │ ├── parseurl@1.3.1 </tspan>
<tspan x="10" y="1994">  │ ├─┬ proxy-addr@1.0.10 </tspan>
<tspan x="10" y="2010">  │ │ ├── forwarded@0.1.0 </tspan>
<tspan x="10" y="2026">  │ │ └── ipaddr.js@1.0.5 </tspan>
<tspan x="10" y="2042">  │ ├── range-parser@1.0.3 </tspan>
<tspan x="10" y="2058">  │ ├─┬ send@0.13.0 </tspan>
<tspan x="10" y="2074">  │ │ ├── destroy@1.0.3 </tspan>
<tspan x="10" y="2090">  │ │ ├── mime@1.3.4 </tspan>
<tspan x="10" y="2106">  │ │ ├─┬ on-finished@2.3.0 </tspan>
<tspan x="10" y="2122">  │ │ │ └── ee-first@1.1.1 </tspan>
<tspan x="10" y="2138">  │ │ └── statuses@1.2.1 </tspan>
<tspan x="10" y="2154">  │ ├── utils-merge@1.0.0 </tspan>
<tspan x="10" y="2170">  │ └── vary@1.0.1 </tspan>
<tspan x="10" y="2186">  ├── log@1.4.0 </tspan>
<tspan x="10" y="2202">  ├── optparse@1.0.4 </tspan>
<tspan x="10" y="2218">  └── scoped-http-client@0.11.0</tspan>
</text>
</svg>
